<?xml version="1.0" encoding="utf-8"?><!-- Generator: Adobe Illustrator 15.0.0, SVG Export Plug-In . SVG Version: 6.00 Build 0)  --><!DOCTYPE svg PUBLIC "-//W3C//DTD SVG 1.1//EN" "http://www.w3.org/Graphics/SVG/1.1/DTD/svg11.dtd"><svg xmlns="http://www.w3.org/2000/svg" xmlns:xlink="http://www.w3.org/1999/xlink" viewBox="0 0 50 50" width="50px" height="50px"><path d="M45,2H5C3.346,2,2,3.346,2,5v30c0,1.654,1.346,3,3,3h40c1.654,0,3-1.346,3-3V5C48,3.346,46.654,2,45,2z M43,33H7V7h36V33z"/><polyline fill="none" stroke="#000000" stroke-width="2" stroke-miterlimit="10" points="20,12 12,20 20,28 "/><polyline fill="none" stroke="#000000" stroke-width="2" stroke-miterlimit="10" points="30,12 38,20 30,28 "/><path d="M30,43H20v-4h10V43z"/><path d="M45.769,46.359l-5-6C40.578,40.132,40.297,40,40,40h-8v3v2h-2H20h-2v-2v-3h-8c-0.297,0-0.578,0.132-0.768,0.359l-5,6c-0.249,0.299-0.302,0.714-0.138,1.064C4.259,47.775,4.612,48,5,48h40c0.388,0,0.741-0.225,0.905-0.576C46.07,47.073,46.017,46.658,45.769,46.359z"/></svg>